<svg xmlns="http://www.w3.org/2000/svg" style="display: none;">
  <symbol id="icon_0288976f"  viewBox="0 0 24 24" fill="none" stroke="currentColor" stroke-width="1.5"  >
    <rect x="3" y="3" width="18" height="18" rx="2"/><path d="M3 9h18"/><path d="M9 21V9"/>
  </symbol>
  <symbol id="icon_07eda7d0"  viewBox="0 0 24 24"   fill="currentColor">
    <path d="M17.472 14.382c-.297-.149-1.758-.867-2.03-.967-.273-.099-.471-.148-.67.15-.197.297-.767.966-.94 1.164-.173.199-.347.223-.644.075-.297-.15-1.255-.463-2.39-1.475-.883-.788-1.48-1.761-1.653-2.059-.173-.297-.018-.458.13-.606.134-.133.298-.347.446-.52.149-.174.198-.298.298-.497.099-.198.05-.371-.025-.52-.075-.149-.669-1.612-.916-2.207-.242-.579-.487-.5-.669-.51a12.8 12.8 0 0 0-.57-.01c-.198 0-.52.074-.792.372-.272.297-1.04 1.016-1.04 2.479 0 1.462 1.065 2.875 1.213 3.074.149.198 2.096 3.2 5.077 4.487.709.306 1.262.489 1.694.625.712.227 1.36.195 1.871.118.571-.085 1.758-.719 2.006-1.413.248-.694.248-1.289.173-1.413-.074-.124-.272-.198-.57-.347m-5.421 7.403h-.004a9.87 9.87 0 0 1-5.031-1.378l-.361-.214-3.741.982.998-3.648-.235-.374a9.86 9.86 0 0 1-1.51-5.26c.001-5.45 4.436-9.884 9.888-9.884 2.64 0 5.122 1.03 6.988 2.898a9.82 9.82 0 0 1 2.893 6.994c-.003 5.45-4.437 9.884-9.885 9.884m8.413-18.297A11.815 11.815 0 0 0 12.05 0C5.495 0 .16 5.335.157 11.892c0 2.096.547 4.142 1.588 5.945L.057 24l6.305-1.654a11.882 11.882 0 0 0 5.683 1.448h.005c6.554 0 11.89-5.335 11.893-11.893a11.821 11.821 0 0 0-3.48-8.413Z"/>
  </symbol>
  <symbol id="icon_0f0482d6"    viewBox="0 0 24 24" fill="none" stroke="currentColor" stroke-width="2.5" stroke-linecap="round" stroke-linejoin="round">
    <line x1="5" y1="12" x2="19" y2="12"></line><polyline points="12 5 19 12 12 19"></polyline>
  </symbol>
  <symbol id="icon_116dbb32"  viewBox="0 0 24 24" fill="none" stroke="currentColor" stroke-width="2"  >
    <circle cx="7" cy="17" r="2"></circle><circle cx="17" cy="17" r="2"></circle><path d="M5 17H3v-6l2-5h9l4 5h3v6h-2"></path>
  </symbol>
  <symbol id="icon_1a61bb9b"    viewBox="0 0 24 24" fill="none" stroke="currentColor" stroke-width="2" stroke-linecap="round" stroke-linejoin="round">
    <path d="M16 8a6 6 0 0 1 6 6v7h-4v-7a2 2 0 0 0-2-2 2 2 0 0 0-2 2v7h-4v-7a6 6 0 0 1 6-6z"></path><rect x="2" y="9" width="4" height="12"></rect><circle cx="4" cy="4" r="2"></circle>
  </symbol>
  <symbol id="icon_1a7b89b0"    viewBox="0 0 24 24" fill="none" stroke="currentColor" stroke-width="2" stroke-linecap="round" stroke-linejoin="round">
    <circle cx="12" cy="12" r="10"/><circle cx="12" cy="12" r="4"/><line x1="22" y1="12" x2="16" y2="12"/><line x1="8" y1="12" x2="2" y2="12"/><line x1="12" y1="2" x2="12" y2="8"/><line x1="12" y1="16" x2="12" y2="22"/>
  </symbol>
  <symbol id="icon_1c51ae6e"    viewBox="0 0 24 24" fill="none" stroke="currentColor" stroke-width="2" stroke-linecap="round" stroke-linejoin="round">
    <path d="M14 9V5a3 3 0 0 0-3-3l-4 9v11h11.28a2 2 0 0 0 2-1.7l1.38-9a2 2 0 0 0-2-2.3zM7 22H4a2 2 0 0 1-2-2v-7a2 2 0 0 1 2-2h3"/>
  </symbol>
  <symbol id="icon_1e511a3a"  viewBox="0 0 24 24"   stroke="currentColor" stroke-width="2" fill="none">
    <line x1="16.5" y1="9.4" x2="7.5" y2="4.21"></line><path d="M21 16V8a2 2 0 0 0-1-1.73l-7-4a2 2 0 0 0-2 0l-7 4A2 2 0 0 0 3 8v8a2 2 0 0 0 1 1.73l7 4a2 2 0 0 0 2 0l7-4A2 2 0 0 0 21 16z"></path><polyline points="3.27 6.96 12 12.01 20.73 6.96"></polyline><line x1="12" y1="22.08" x2="12" y2="12"></line>
  </symbol>
  <symbol id="icon_1e92a78d"    viewBox="0 0 24 24" fill="none" stroke="currentColor" stroke-width="2" stroke-linecap="round" stroke-linejoin="round">
    <rect width="20" height="16" x="2" y="4" rx="2"/><path d="m22 7-8.97 5.7a1.94 1.94 0 0 1-2.06 0L2 7"/>
  </symbol>
  <symbol id="icon_295390ab"  viewBox="0 0 24 24" fill="none" stroke="currentColor" stroke-width="2" stroke-linecap="round" stroke-linejoin="round">
    <path d="M22 11.08V12a10 10 0 1 1-5.93-9.14"/><polyline points="22 4 12 14.01 9 11.01"/>
  </symbol>
  <symbol id="icon_29b48b7f"  viewBox="0 0 24 24"   stroke="currentColor" stroke-width="2" fill="none">
    <line x1="12" y1="5" x2="12" y2="19"></line><line x1="5" y1="12" x2="19" y2="12"></line>
  </symbol>
  <symbol id="icon_320db8c4"    viewBox="0 0 24 24" fill="currentColor">
    <path d="M17.472 14.382c-.297-.149-1.758-.867-2.03-.967-.273-.099-.471-.148-.67.15-.197.297-.767.966-.94 1.164-.173.199-.347.223-.644.075-.297-.15-1.255-.463-2.39-1.475-.883-.788-1.48-1.761-1.653-2.059-.173-.297-.018-.458.13-.606.134-.133.298-.347.446-.52.149-.174.198-.298.298-.497.099-.198.05-.371-.025-.52-.075-.149-.669-1.612-.916-2.207-.242-.579-.487-.5-.669-.51-.173-.008-.371-.01-.57-.01-.198 0-.52.074-.792.372-.272.297-1.04 1.016-1.04 2.479 0 1.462 1.065 2.875 1.213 3.074.149.198 2.096 3.2 5.077 4.487.709.306 1.262.489 1.694.625.712.227 1.36.195 1.871.118.571-.085 1.758-.719 2.006-1.413.248-.694.248-1.289.173-1.413-.074-.124-.272-.198-.57-.347m-5.421 7.403h-.004a9.87 9.87 0 01-5.031-1.378l-.361-.214-3.741.982.998-3.648-.235-.374a9.86 9.86 0 01-1.51-5.26c.001-5.45 4.436-9.884 9.888-9.884 2.64 0 5.122 1.03 6.988 2.898a9.825 9.825 0 012.893 6.994c-.003 5.45-4.437 9.884-9.885 9.884m8.413-18.297A11.815 11.815 0 0012.05 0C5.495 0 .16 5.335.157 11.892c0 2.096.547 4.142 1.588 5.945L.057 24l6.305-1.654a11.882 11.882 0 005.683 1.448h.005c6.554 0 11.89-5.335 11.893-11.893a11.821 11.821 0 00-3.48-8.413z"/>
  </symbol>
  <symbol id="icon_3fd5de63"    viewBox="0 0 24 24" fill="none" stroke="currentColor" stroke-width="1.5" stroke-linecap="round" stroke-linejoin="round">
    <circle cx="12" cy="12" r="10"/><circle cx="12" cy="12" r="6"/><circle cx="12" cy="12" r="2"/>
  </symbol>
  <symbol id="icon_4093d7c6"  viewBox="0 0 24 24" fill="none" stroke="currentColor" stroke-width="2"  >
    <path d="M12 2a5 5 0 0 0-5 5v2a5 5 0 0 0 10 0V7a5 5 0 0 0-5-5z"></path><path d="M19 21v-2a4 4 0 0 0-4-4H9a4 4 0 0 0-4 4v2"></path>
  </symbol>
  <symbol id="icon_4235cb53"    viewBox="0 0 24 24" fill="none" stroke="currentColor" stroke-width="2" stroke-linecap="round" stroke-linejoin="round">
    <path d="M14 2H6a2 2 0 0 0-2 2v16a2 2 0 0 0 2 2h12a2 2 0 0 0 2-2V8z"/><polyline points="14 2 14 8 20 8"/><line x1="16" y1="13" x2="8" y2="13"/><line x1="16" y1="17" x2="8" y2="17"/><polyline points="10 9 9 9 8 9"/>
  </symbol>
  <symbol id="icon_4677987d"  viewBox="0 0 24 24"   stroke="currentColor" stroke-width="2" fill="none">
    <polyline points="9 18 15 12 9 6"></polyline>
  </symbol>
  <symbol id="icon_4d408f8d"    viewBox="0 0 24 24" fill="none" stroke="currentColor" stroke-width="2" stroke-linecap="round" stroke-linejoin="round">
    <path d="m11 17 2 2a1 1 0 1 0 3-3"/><path d="m14 14 2.5 2.5a1 1 0 1 0 3-3l-3.88-3.88a3 3 0 0 0-4.24 0l-.88.88a1 1 0 1 1-3-3l2.81-2.81a5.79 5.79 0 0 1 7.06-.87l.47.28a2 2 0 0 0 1.42.25L21 4"/><path d="m21 3 1 11h-2"/><path d="M3 3 2 14l6.5 6.5a1 1 0 1 0 3-3"/><path d="M3 4h8"/>
  </symbol>
  <symbol id="icon_4ffe048e"  viewBox="0 0 24 24"   stroke="currentColor" stroke-width="2" fill="none">
    <path d="M22 16.92v3a2 2 0 0 1-2.18 2 19.79 19.79 0 0 1-8.63-3.07 19.5 19.5 0 0 1-6-6 19.79 19.79 0 0 1-3.07-8.67A2 2 0 0 1 4.11 2h3a2 2 0 0 1 2 1.72 12.84 12.84 0 0 0 .7 2.81 2 2 0 0 1-.45 2.11L8.09 9.91a16 16 0 0 0 6 6l1.27-1.27a2 2 0 0 1 2.11-.45 12.84 12.84 0 0 0 2.81.7A2 2 0 0 1 22 16.92z"></path>
  </symbol>
  <symbol id="icon_5354b4f5"  viewBox="0 0 24 24" fill="none" stroke="currentColor" stroke-width="2"  >
    <path d="M14 2H6a2 2 0 0 0-2 2v16a2 2 0 0 0 2 2h12a2 2 0 0 0 2-2V8z"></path><polyline points="14 2 14 8 20 8"></polyline><line x1="16" y1="13" x2="8" y2="13"></line><line x1="16" y1="17" x2="8" y2="17"></line><polyline points="10 9 9 9 8 9"></polyline>
  </symbol>
  <symbol id="icon_56cf3883"    viewBox="0 0 24 24" fill="none" stroke="currentColor" stroke-width="2" stroke-linecap="round" stroke-linejoin="round">
    <rect width="20" height="20" x="2" y="2" rx="5" ry="5"/><path d="M16 11.37A4 4 0 1 1 12.63 8 4 4 0 0 1 16 11.37z"/><line x1="17.5" y1="6.5" x2="17.51" y2="6.5"/>
  </symbol>
  <symbol id="icon_580739ab"    viewBox="0 0 24 24" fill="none" stroke="currentColor" stroke-width="1.5" stroke-linecap="round" stroke-linejoin="round">
    <path d="m2 22 8-8v8"/><path d="M10 14V2a2 2 0 0 1 2-2h10a2 2 0 0 1 2 2v20"/><path d="m2 22 20 0"/><path d="M16 10h-2"/><path d="M16 14h-2"/><path d="M16 6h-2"/>
  </symbol>
  <symbol id="icon_5c98a671"    viewBox="0 0 24 24" fill="none" stroke="currentColor" stroke-width="2" stroke-linecap="round" stroke-linejoin="round">
    <polyline points="22 7 13.5 15.5 8.5 10.5 2 17"/><polyline points="16 7 22 7 22 13"/>
  </symbol>
  <symbol id="icon_5e01f710"    viewBox="0 0 24 24" fill="none" stroke="currentColor" stroke-width="2" stroke-linecap="round" stroke-linejoin="round">
    <rect x="2" y="2" width="20" height="20" rx="5" ry="5"></rect><path d="M16 11.37A4 4 0 1 1 12.63 8 4 4 0 0 1 16 11.37z"></path><line x1="17.5" y1="6.5" x2="17.51" y2="6.5"></line>
  </symbol>
  <symbol id="icon_62d1f773"    viewBox="0 0 24 24" fill="none" stroke="currentColor" stroke-width="2" stroke-linecap="round" stroke-linejoin="round">
    <path d="M20 10c0 6-8 12-8 12s-8-6-8-12a8 8 0 0 1 16 0Z"/><circle cx="12" cy="10" r="3"/>
  </symbol>
  <symbol id="icon_6730c8a0"  viewBox="0 0 24 24"   stroke="currentColor" stroke-width="2" fill="none">
    <path d="M3 9l9-7 9 7v11a2 2 0 0 1-2 2H5a2 2 0 0 1-2-2z"></path><polyline points="9 22 9 12 15 12 15 22"></polyline>
  </symbol>
  <symbol id="icon_6a3e78a3"  viewBox="0 0 24 24" fill="none" stroke="currentColor" stroke-width="2"  >
    <polygon points="1 6 1 22 8 18 16 22 23 18 23 2 16 6 8 2 1 6"></polygon><line x1="8" y1="2" x2="8" y2="18"></line><line x1="16" y1="6" x2="16" y2="22"></line>
  </symbol>
  <symbol id="icon_745aed1b"  viewBox="0 0 24 24" fill="none" stroke="currentColor" stroke-width="2"  >
    <circle cx="12" cy="12" r="10"></circle><circle cx="12" cy="12" r="6"></circle><circle cx="12" cy="12" r="2"></circle>
  </symbol>
  <symbol id="icon_85ded5b1"  viewBox="0 0 24 24" fill="none" stroke="currentColor" stroke-width="1.5"  >
    <path d="M2 20V8l5-4v6l5-4v6l5-4v8"/><path d="M2 20h20"/><rect x="17" y="12" width="5" height="8"/>
  </symbol>
  <symbol id="icon_8f40bc01"  viewBox="0 0 24 24"   stroke="currentColor" stroke-width="2" fill="none">
    <rect x="4" y="4" width="16" height="16" rx="2" ry="2"></rect><rect x="9" y="9" width="6" height="6"></rect><line x1="9" y1="1" x2="9" y2="4"></line><line x1="15" y1="1" x2="15" y2="4"></line><line x1="9" y1="20" x2="9" y2="23"></line><line x1="15" y1="20" x2="15" y2="23"></line><line x1="20" y1="9" x2="23" y2="9"></line><line x1="20" y1="14" x2="23" y2="14"></line><line x1="1" y1="9" x2="4" y2="9"></line><line x1="1" y1="14" x2="4" y2="14"></line>
  </symbol>
  <symbol id="icon_950d58a4"    viewBox="0 0 24 24" fill="none" stroke="currentColor" stroke-width="2" stroke-linecap="round" stroke-linejoin="round">
    <path d="M7.9 20A9 9 0 1 0 4 16.1L2 22Z"/>
  </symbol>
  <symbol id="icon_9858aa5a"    viewBox="0 0 24 24" fill="none" stroke="currentColor" stroke-width="2" stroke-linecap="round" stroke-linejoin="round">
    <path d="M21 15v4a2 2 0 0 1-2 2H5a2 2 0 0 1-2-2v-4"/><polyline points="17 8 12 3 7 8"/><line x1="12" y1="3" x2="12" y2="15"/>
  </symbol>
  <symbol id="icon_996cb3e7"  viewBox="0 0 24 24" fill="none" stroke="currentColor" stroke-width="2"  >
    <rect x="3" y="11" width="18" height="11" rx="2" ry="2"></rect><path d="M7 11V7a5 5 0 0 1 10 0v4"></path>
  </symbol>
  <symbol id="icon_9bd6136b"    viewBox="0 0 24 24" fill="none" stroke="currentColor" stroke-width="1.5" stroke-linecap="round" stroke-linejoin="round">
    <path d="M6 3h12l4 6-10 13L2 9Z"/><path d="M11 3 8 9l4 13"/><path d="M13 3l3 6-4 13"/><path d="M2 9h20"/>
  </symbol>
  <symbol id="icon_a4ea72a3"    viewBox="0 0 24 24" fill="none" stroke="currentColor" stroke-width="2" stroke-linecap="round" stroke-linejoin="round">
    <path d="M17 21v-2a4 4 0 0 0-4-4H5a4 4 0 0 0-4 4v2"/><circle cx="9" cy="7" r="4"/><path d="M23 21v-2a4 4 0 0 0-3-3.87"/><path d="M16 3.13a4 4 0 0 1 0 7.75"/>
  </symbol>
  <symbol id="icon_a81ddb8b"    viewBox="0 0 100 100" preserveAspectRatio="none">
    <defs>
          <pattern id="diagonal-stripes" width="10" height="10" patternTransform="rotate(45 0 0)" patternUnits="userSpaceOnUse">
            <line x1="0" y1="0" x2="0" y2="10" stroke="rgba(252, 232, 131, 0.03)" stroke-width="3" />
          </pattern>
        </defs>
        <rect width="100" height="100" fill="url(#diagonal-stripes)" />
        <line x1="0" y1="100" x2="100" y2="0" stroke="rgba(252, 232, 131, 0.05)" stroke-width="1" />
        <line x1="20" y1="100" x2="100" y2="20" stroke="rgba(252, 232, 131, 0.02)" stroke-width="0.5" />
  </symbol>
  <symbol id="icon_ac4a79b2"  viewBox="0 0 24 24" fill="none" stroke="currentColor" stroke-width="2"  >
    <path d="M21 16V8a2 2 0 0 0-1-1.73l-7-4a2 2 0 0 0-2 0l-7 4A2 2 0 0 0 3 8v8a2 2 0 0 0 1 1.73l7 4a2 2 0 0 0 2 0l7-4A2 2 0 0 0 21 16z"></path><polyline points="3.27 6.96 12 12.01 20.73 6.96"></polyline><line x1="12" y1="22.08" x2="12" y2="12"></line>
  </symbol>
  <symbol id="icon_aceddf84"    viewBox="0 0 24 24" fill="none" stroke="currentColor" stroke-width="2" stroke-linecap="round" stroke-linejoin="round">
    <path d="M21 11.5a8.38 8.38 0 0 1-.9 3.8 8.5 8.5 0 0 1-7.6 4.7 8.38 8.38 0 0 1-3.8-.9L3 21l1.9-5.7a8.38 8.38 0 0 1-.9-3.8 8.5 8.5 0 0 1 4.7-7.6 8.38 8.38 0 0 1 3.8-.9h.5a8.48 8.48 0 0 1 8 8v.5z"/>
  </symbol>
  <symbol id="icon_b134eca2"  viewBox="0 0 24 24" fill="none" stroke="currentColor" stroke-width="2"  >
    <path d="M22 11.08V12a10 10 0 1 1-5.93-9.14"></path><polyline points="22 4 12 14.01 9 11.01"></polyline>
  </symbol>
  <symbol id="icon_b29beb31"  viewBox="0 0 24 24" fill="none" stroke="currentColor" stroke-width="1.5"  >
    <circle cx="12" cy="12" r="10"/><polyline points="12 6 12 12 16 14"/>
  </symbol>
  <symbol id="icon_b6660207"  viewBox="0 0 24 24"   stroke="currentColor" stroke-width="2" fill="none">
    <rect x="2" y="7" width="20" height="14" rx="2" ry="2"></rect><path d="M16 21V5a2 2 0 0 0-2-2h-4a2 2 0 0 0-2 2v16"></path>
  </symbol>
  <symbol id="icon_b9bd1f9a"    viewBox="0 0 24 24" fill="none" stroke="currentColor" stroke-width="1.5" stroke-linecap="round" stroke-linejoin="round">
    <path d="M16 21v-2a4 4 0 0 0-4-4H6a4 4 0 0 0-4 4v2"/><circle cx="9" cy="7" r="4"/><polyline points="16 11 18 13 22 9"/>
  </symbol>
  <symbol id="icon_bea76021"  viewBox="0 0 24 24"   stroke="currentColor" stroke-width="2" fill="none">
    <polyline points="15 18 9 12 15 6"></polyline>
  </symbol>
  <symbol id="icon_c187d9eb"    viewBox="0 0 400 200" preserveAspectRatio="none">
    <path d="M0,200 L100,100 L150,200 Z" fill="rgba(252, 232, 131, 0.05)" />
      <path d="M200,200 L300,50 L400,200 Z" fill="rgba(252, 232, 131, 0.03)" />
      <line x1="50" y1="0" x2="50" y2="200" stroke="rgba(252, 232, 131, 0.1)" stroke-width="2" />
      <line x1="250" y1="0" x2="250" y2="200" stroke="rgba(252, 232, 131, 0.1)" stroke-width="2" />
      <line x1="0" y1="150" x2="400" y2="150" stroke="rgba(252, 232, 131, 0.1)" stroke-width="2" />
  </symbol>
  <symbol id="icon_ccc9ab05"    viewBox="0 0 24 24" fill="none" stroke="currentColor" stroke-width="2" stroke-linecap="round" stroke-linejoin="round">
    <path d="M4.5 16.5c-1.5 1.26-2 5-2 5s3.74-.5 5-2c.71-.84.7-2.13-.09-2.91a2.18 2.18 0 0 0-2.91-.09z"/><mpath d="m12 15-3-3a22 22 0 0 1 2-3.95A12.88 12.88 0 0 1 22 2c0 2.72-.78 7.5-6 11a22.35 22.35 0 0 1-4 2z"/><path d="M9 12H4s.55-3.03 2-4c1.62-1.08 5 0 5 0"/><path d="M12 15v5s3.03-.55 4-2c1.08-1.62 0-5 0-5"/>
  </symbol>
  <symbol id="icon_ce998bbf"     viewBox="0 0 24 24" fill="none" stroke="currentColor" stroke-width="2" stroke-linecap="round" stroke-linejoin="round">
    <rect x="4" y="2" width="16" height="20" rx="3" ry="3"></rect>
          <rect x="8" y="6" width="8" height="4" rx="1" ry="1"></rect>
          <line x1="8" y1="14" x2="8.01" y2="14"></line>
          <line x1="12" y1="14" x2="12.01" y2="14"></line>
          <line x1="16" y1="14" x2="16.01" y2="14"></line>
          <line x1="8" y1="18" x2="8.01" y2="18"></line>
          <line x1="12" y1="18" x2="12.01" y2="18"></line>
          <line x1="16" y1="18" x2="16.01" y2="18"></line>
  </symbol>
  <symbol id="icon_cf56ec56"  viewBox="0 0 24 24"   stroke="currentColor" stroke-width="2" fill="none">
    <path d="M17 21v-2a4 4 0 0 0-4-4H5a4 4 0 0 0-4 4v2"></path><circle cx="9" cy="7" r="4"></circle><path d="M23 21v-2a4 4 0 0 0-3-3.87"></path><path d="M16 3.13a4 4 0 0 1 0 7.75"></path>
  </symbol>
  <symbol id="icon_dc4fceff"  viewBox="0 0 24 24"   stroke="currentColor" stroke-width="2.5" fill="none">
    <line x1="5" y1="12" x2="19" y2="12"/><polyline points="12 5 19 12 12 19"/>
  </symbol>
  <symbol id="icon_dd777659"  viewBox="0 0 24 24"   stroke="currentColor" stroke-width="2" fill="none">
    <path d="M14 9V5a3 3 0 0 0-3-3l-4 9v11h11.28a2 2 0 0 0 2-1.7l1.38-9a2 2 0 0 0-2-2.3zM7 22H4a2 2 0 0 1-2-2v-7a2 2 0 0 1 2-2h3"></path>
  </symbol>
  <symbol id="icon_dddadea5"    viewBox="0 0 24 24" fill="none" stroke="currentColor" stroke-width="2" stroke-linecap="round" stroke-linejoin="round">
    <path d="M22 16.92v3a2 2 0 0 1-2.18 2 19.79 19.79 0 0 1-8.63-3.07 19.5 19.5 0 0 1-6-6 19.79 19.79 0 0 1-3.07-8.67A2 2 0 0 1 4.11 2h3a2 2 0 0 1 2 1.72 12.84 12.84 0 0 0 .7 2.81 2 2 0 0 1-.45 2.11L8.09 9.91a16 16 0 0 0 6 6l1.27-1.27a2 2 0 0 1 2.11-.45 12.84 12.84 0 0 0 2.81.7A2 2 0 0 1 22 16.92z"/>
  </symbol>
  <symbol id="icon_e2cb885d"    viewBox="0 0 24 24" fill="none" stroke="currentColor" stroke-width="1.5" stroke-linecap="round" stroke-linejoin="round">
    <path d="M2 12s3-7 10-7 10 7 10 7-3 7-10 7-10-7-10-7Z"/><circle cx="12" cy="12" r="3"/>
  </symbol>
  <symbol id="icon_f7ce034e"    viewBox="0 0 24 24" fill="none" stroke="currentColor" stroke-width="2" stroke-linecap="round" stroke-linejoin="round">
    <path d="M18 2h-3a5 5 0 0 0-5 5v3H7v4h3v8h4v-8h3l1-4h-4V7a1 1 0 0 1 1-1h3z"></path>
  </symbol>
  <symbol id="icon_fa9cc44e"    viewBox="0 0 24 24" fill="none" stroke="currentColor" stroke-width="2" stroke-linecap="round" stroke-linejoin="round">
    <path d="M21 15v4a2 2 0 0 1-2 2H5a2 2 0 0 1-2-2v-4"/><polyline points="7 10 12 15 17 10"/><line x1="12" y1="15" x2="12" y2="3"/>
  </symbol>
</svg>